<?xml version="1.0" encoding="UTF-8" standalone="no"?><!DOCTYPE svg PUBLIC "-//W3C//DTD SVG 1.1//EN" "http://www.w3.org/Graphics/SVG/1.1/DTD/svg11.dtd"><svg width="100%" height="100%" viewBox="0 0 543 111" version="1.1" xmlns="http://www.w3.org/2000/svg" xmlns:xlink="http://www.w3.org/1999/xlink" xml:space="preserve" style="fill-rule:evenodd;clip-rule:evenodd;stroke-linejoin:round;stroke-miterlimit:1.41421;"><path d="M91.95,70.05l0,-3.6l-10.725,0l0,3.6l8.25,0l0,7.425l-8.25,0l0,3l10.725,0l0,-3.6l10.425,0l0,11.775l-31.875,0l0,-30.75l31.875,0l0,11.775l-10.425,0l0,0.375Z" style="fill:#037ea1;fill-rule:nonzero;"/><path d="M141.075,76.05l0,12.6l-30.225,0l0,-30.75l10.725,0l0,21.975l9.3,0l0,-3.825l10.2,0Z" style="fill:#037ea1;fill-rule:nonzero;"/><path d="M168.825,70.05l0,-3.6l-10.725,0l0,3.6l8.25,0l0,7.425l-8.25,0l0,3l10.725,0l0,-3.6l10.425,0l0,11.775l-31.875,0l0,-30.75l31.875,0l0,11.775l-10.425,0l0,0.375Z" style="fill:#037ea1;fill-rule:nonzero;"/><path d="M214.95,57.975l11.25,0l0,30.75l-10.725,0l0,-16.5l-0.525,0l-8.25,9.3l-8.25,-9.3l-0.525,0l0,16.5l-10.725,0l0,-30.75l11.25,0l8.25,9.3l8.25,-9.3Z" style="fill:#037ea1;fill-rule:nonzero;"/><path d="M257.025,70.05l0,-3.6l-10.725,0l0,3.6l8.25,0l0,7.425l-8.25,0l0,3l10.725,0l0,-3.6l10.425,0l0,11.775l-31.875,0l0,-30.75l31.875,0l0,11.775l-10.425,0l0,0.375Z" style="fill:#037ea1;fill-rule:nonzero;"/><path d="M298.2,67.575l0,-9.6l10.725,0l0,30.75l-10.725,0l0,-7.95l-11.25,-9.6l-0.525,0l0,17.55l-10.725,0l0,-30.75l10.725,0l11.25,9.6l0.525,0Z" style="fill:#037ea1;fill-rule:nonzero;"/><path d="M336.6,66.75l0,21.975l-10.725,0l0,-21.975l-10.95,0l0,-8.775l32.7,0l0,8.775l-11.025,0Z" style="fill:#037ea1;fill-rule:nonzero;"/><path d="M369,90.075c-10.95,0 -19.2,-8.25 -19.2,-16.725c0,-8.55 8.25,-16.725 19.2,-16.725c10.95,0 19.2,8.25 19.2,16.725c0.075,8.475 -8.175,16.725 -19.2,16.725Zm0,-24.45c-4.425,0 -7.95,3.6 -7.95,7.95c0,4.35 3.6,7.95 7.95,7.95c4.425,0 7.95,-3.6 7.95,-7.95c0,-4.35 -3.525,-7.95 -7.95,-7.95Z" style="fill:#037ea1;fill-rule:nonzero;"/><path d="M412.125,78.225l-7.125,0l0,10.425l-10.725,0l0,-30.75l33.525,0l0,20.325l-4.125,0l5.25,10.425l-11.55,0l-5.25,-10.425Zm-6.825,-7.95l11.775,0l0,-3.825l-11.775,0l0,3.825Z" style="fill:#037ea1;fill-rule:nonzero;"/><path d="M434.925,57.975l23.1,0l0,8.775l-6.075,0l0,13.2l6.075,0l0,8.775l-23.1,0l0,-8.775l6.075,0l0,-13.2l-6.075,0l0,-8.775Z" style="fill:#037ea1;fill-rule:nonzero;"/><path d="M464.625,57.975l31.575,0l0,10.425l-10.425,0l0,-2.175l-10.425,0l0,1.65l20.85,4.95l0,15.9l-31.575,0l0,-10.425l10.425,0l0,2.175l10.425,0l0,-1.65l-20.85,-4.95l0,-15.9Z" style="fill:#037ea1;fill-rule:nonzero;"/><path d="M531.9,57.975l11.25,0l0,30.75l-10.725,0l0,-16.5l-0.525,0l-8.25,9.3l-8.25,-9.3l-0.525,0l0,16.5l-10.425,0l0,-30.75l11.25,0l8.25,9.3l7.95,-9.3Z" style="fill:#037ea1;fill-rule:nonzero;"/><path d="M52.125,52.425l-19.2,-9.075l12.6,18.975l-3,27.15l-1.35,0l-1.65,-27.975l-13.725,-20.85l-12.075,-5.775l6.3,-7.725l6.075,4.425l9.9,-1.125l1.35,-6.6l-22.5,-9.9l-14.85,23.1l21.675,32.1l-6.375,40.95l36.525,0l-0.3,-38.475l7.425,-8.25l1.35,-7.425l-8.175,-3.525Z" style="fill:#037ea1;fill-rule:nonzero;"/><path d="M70.275,23.925l-14.25,19.5l7.725,3.3l12.075,-15.675c-0.075,0 -5.55,-7.125 -5.55,-7.125Z" style="fill:#037ea1;fill-rule:nonzero;"/><path d="M59.85,12.9l-16.725,26.1l7.95,3l15.9,-22.275c0,0.075 -7.125,-6.825 -7.125,-6.825Z" style="fill:#037ea1;fill-rule:nonzero;"/><path d="M45.825,4.95l-7.125,12.6l3.825,1.65l-3,13.425l-9.9,0.825l9.075,4.125l17.55,-27.975l-10.425,-4.65Z" style="fill:#037ea1;fill-rule:nonzero;"/><path d="M41.4,3.6l-10.125,-3.6l-6.3,11.55l9.6,4.125l1.65,-2.775l5.175,-9.3Z" style="fill:#037ea1;fill-rule:nonzero;"/><path d="M72.975,105.75c0,0.525 0,1.35 -0.3,1.95c-0.3,0.525 -0.3,1.125 -0.825,1.35c-0.3,0.3 -0.825,0.525 -1.125,0.825c-0.525,0.3 -1.125,0.3 -1.65,0.3c-0.3,0 -0.525,0 -0.825,0c-0.3,0 -0.525,0 -0.825,-0.3l0,-1.35l0,-0.3l1.95,0c0.3,0 0.525,-0.3 0.525,-0.525c0.3,-0.3 0.3,-0.525 0.3,-0.825c0,-0.3 0,-0.825 0,-1.125l0,-7.725l2.175,0l0,7.725l0.6,0Z" style="fill:#037ea1;fill-rule:nonzero;"/><path d="M86.7,103.8c0,0.825 -0.3,1.65 -0.525,2.475c-0.3,0.825 -0.825,1.35 -1.125,1.95c-0.525,0.525 -1.125,1.125 -1.95,1.35c-0.825,0.225 -1.65,0.525 -2.475,0.525c-0.825,0 -1.65,-0.3 -2.475,-0.525c-0.825,-0.225 -1.35,-0.825 -1.95,-1.35c-0.525,-0.525 -0.825,-1.125 -1.125,-1.95c-0.3,-0.825 -0.525,-1.65 -0.525,-2.475c0,-0.825 0.3,-1.65 0.525,-2.475c0.3,-0.825 0.825,-1.35 1.125,-1.95c0.525,-0.525 1.125,-1.125 1.95,-1.35c0.825,-0.3 1.65,-0.525 2.475,-0.525c0.825,0 1.65,0.3 2.475,0.525c0.825,0.3 1.35,0.825 1.95,1.35c0.525,0.525 0.825,1.125 1.125,1.95c0.525,0.825 0.525,1.65 0.525,2.475Zm-2.175,0c0,-0.525 0,-1.35 -0.3,-1.65c-0.3,-0.3 -0.525,-0.825 -0.825,-1.35c-0.3,-0.3 -0.825,-0.525 -1.125,-0.825c-0.525,-0.3 -1.125,-0.3 -1.65,-0.3c-0.525,0 -1.125,0 -1.65,0.3c-0.525,0.3 -0.825,0.525 -1.125,0.825c-0.3,0.3 -0.525,0.825 -0.825,1.35c-0.3,0.525 -0.3,1.125 -0.3,1.65c0,0.525 0,1.35 0.3,1.65c0.3,0.3 0.525,0.825 0.825,1.35c0.3,0.3 0.825,0.525 1.125,0.825c0.525,0.3 1.125,0.3 1.65,0.3c0.525,0 1.125,0 1.65,-0.3c0.525,-0.3 0.825,-0.525 1.125,-0.825c0.3,-0.3 0.525,-0.825 0.825,-1.35c0.3,-0.525 0.3,-0.825 0.3,-1.65Z" style="fill:#037ea1;fill-rule:nonzero;"/><rect x="88.95" y="98.025" width="2.175" height="11.775" style="fill:#037ea1;"/><path d="M95.25,98.025l0.525,0.525l6.3,7.95c0,-0.3 0,-0.3 0,-0.525c0,-0.225 0,-0.3 0,-0.525l0,-7.125l1.95,0l0,11.775l-1.125,0c-0.3,0 -0.3,0 -0.525,0c-0.3,0 -0.3,-0.3 -0.3,-0.3l-6.3,-7.95l0,8.55l-1.95,0l0,-11.775l1.425,-0.6c-0.3,0 -0.3,0 0,0Z" style="fill:#037ea1;fill-rule:nonzero;"/><path d="M117.75,98.025l0,1.95l-3.525,0l0,10.125l-2.25,0l0,-10.125l-3.6,0l0,-1.95l9.375,0Z" style="fill:#037ea1;fill-rule:nonzero;"/><path d="M129.3,109.875l-2.175,0l0,-5.25l-5.475,0l0,5.25l-2.175,0l0,-11.775l2.175,0l0,5.25l5.475,0l0,-5.25l2.175,0l0,11.775Z" style="fill:#037ea1;fill-rule:nonzero;"/><path d="M139.2,98.025l0,1.65l-5.25,0l0,3.3l4.125,0l0,1.65l-4.125,0l0,3.3l5.25,0l0,1.65l-7.425,0l0,-11.775l7.425,0l0,0.225Z" style="fill:#037ea1;fill-rule:nonzero;"/><path d="M146.325,108.225l4.65,0l0,1.95l-6.9,0l0,-11.775l2.175,0l0,9.825l0.075,0Z" style="fill:#037ea1;fill-rule:nonzero;"/><path d="M163.35,109.875l-1.65,0c-0.3,0 -0.3,0 -0.525,-0.3l-0.3,-0.3l-0.825,-2.475l-4.95,0l-0.825,2.475c0,0 0,0.3 -0.3,0.3c0,0 -0.3,0.3 -0.525,0.3l-1.65,0l4.65,-11.775l2.175,0l4.725,11.775Zm-7.95,-4.425l3.825,0l-1.35,-3.825c0,-0.3 -0.3,-0.3 -0.3,-0.525c0,-0.3 -0.3,-0.525 -0.3,-0.825c0,0.3 -0.3,0.525 -0.3,0.825c0,0.3 -0.3,0.525 -0.3,0.525l-1.275,3.825Z" style="fill:#037ea1;fill-rule:nonzero;"/><path d="M165.825,98.025c0,0 0.3,0 0,0l0.525,0.525l6.3,7.95c0,-0.3 0,-0.3 0,-0.525c0,-0.225 0,-0.3 0,-0.525l0,-7.125l1.95,0l0,11.775l-1.125,0c-0.3,0 -0.3,0 -0.525,0c-0.3,0 -0.3,-0.3 -0.3,-0.3l-6.3,-7.95l0,8.55l-1.875,0l0,-11.775l1.35,-0.6Z" style="fill:#037ea1;fill-rule:nonzero;"/><path d="M187.5,103.8c0,0.825 -0.3,1.65 -0.525,2.475c-0.3,0.825 -0.825,1.35 -1.125,1.95c-0.3,0.525 -1.125,0.825 -1.95,1.125c-0.825,0.3 -1.65,0.525 -2.475,0.525l-4.65,0l0,-11.775l4.65,0c0.825,0 1.65,0.3 2.475,0.525c0.825,0.3 1.35,0.825 1.95,1.125c0.525,0.3 0.825,1.125 1.125,1.95c0.3,0.75 0.525,1.275 0.525,2.1Zm-2.175,0c0,-0.525 0,-1.35 -0.3,-1.65c-0.3,-0.3 -0.525,-0.825 -0.825,-1.35c-0.3,-0.3 -0.825,-0.525 -1.125,-0.825c-0.525,-0.3 -1.125,-0.3 -1.65,-0.3l-2.175,0l0,8.55l2.175,0c0.525,0 1.125,0 1.65,-0.3c0.525,-0.3 0.825,-0.525 1.125,-0.825c0.3,-0.3 0.525,-0.825 0.825,-1.35c0.3,-0.6 0.3,-1.125 0.3,-1.95Z" style="fill:#037ea1;fill-rule:nonzero;"/><rect x="189.45" y="98.025" width="2.175" height="11.775" style="fill:#037ea1;"/><path d="M195.75,98.025c0,0 0.3,0 0,0l0.525,0.525l6.3,7.95c0,-0.3 0,-0.3 0,-0.525c0,-0.225 0,-0.3 0,-0.525l0,-7.125l1.95,0l0,11.775l-1.05,0c-0.3,0 -0.3,0 -0.525,0c-0.225,0 -0.3,-0.3 -0.3,-0.3l-6.3,-7.95l0,8.55l-1.95,0l0,-11.775l1.35,-0.6Z" style="fill:#037ea1;fill-rule:nonzero;"/><path d="M212.25,108.225c0.525,0 0.825,0 1.35,0c0.3,0 0.825,-0.3 1.125,-0.3l0,-2.175l-1.35,0l-0.3,0l0,-0.3l0,-1.35l3.825,0l0,4.95c-0.3,0.3 -0.525,0.3 -0.825,0.525c-0.3,0.3 -0.525,0.3 -1.125,0.3c-0.3,0 -0.825,0.3 -1.125,0.3c-0.525,0 -0.825,0 -1.35,0c-0.825,0 -1.65,-0.3 -2.475,-0.525c-0.825,-0.3 -1.35,-0.825 -1.95,-1.35c-0.525,-0.525 -0.825,-1.125 -1.35,-1.95c-0.3,-0.825 -0.525,-1.65 -0.525,-2.475c0,-0.825 0.3,-1.65 0.525,-2.475c0.3,-0.825 0.825,-1.35 1.35,-1.95c0.525,-0.525 1.125,-0.825 1.95,-1.35c0.825,-0.3 1.65,-0.525 2.475,-0.525c1.125,0 1.95,0.3 2.475,0.525c0.825,0.3 1.35,0.525 1.95,1.125l-0.525,1.125c0,0.3 -0.3,0.3 -0.525,0.3l-0.3,0c-0.3,0 -0.3,-0.3 -0.525,-0.3c-0.225,0 -0.3,-0.3 -0.525,-0.3c-0.3,0 -0.525,-0.3 -0.825,-0.3c-0.3,0 -0.525,0 -0.825,0c-0.525,0 -1.125,0 -1.65,0.3c-0.525,0.3 -0.825,0.525 -1.125,0.825c-0.3,0.3 -0.525,0.825 -0.825,1.35c-0.3,0.525 -0.3,1.125 -0.3,1.65c0,0.525 0,1.35 0.3,1.95c0.3,0.525 0.525,1.125 0.825,1.35c0.3,0.3 0.825,0.525 1.125,0.825c-0.075,0.225 0.45,0.225 1.05,0.225Z" style="fill:#037ea1;fill-rule:nonzero;"/><path d="M224.325,105.75l0,4.125l-2.175,0l0,-11.775l3.825,0c0.825,0 1.35,0 2.175,0.3c0.525,0.3 1.125,0.525 1.35,0.825c0.225,0.3 0.525,0.825 0.825,1.125c0.3,0.525 0.3,1.125 0.3,1.65c0,0.525 0,1.125 -0.3,1.65c-0.3,0.525 -0.525,0.825 -0.825,1.35c-0.3,0.3 -0.825,0.525 -1.35,0.825c-0.525,0.3 -1.35,0.3 -1.95,0.3l-1.95,0l0.075,-0.375Zm0,-1.65l1.65,0c0.3,0 0.825,0 1.125,-0.3c0.3,0 0.525,-0.3 0.825,-0.525c0.3,-0.3 0.3,-0.525 0.525,-0.825c0,-0.3 0.3,-0.525 0.3,-0.825c0,-0.3 0,-0.525 -0.3,-0.825c0,-0.3 -0.3,-0.525 -0.525,-0.525c-0.3,-0.3 -0.525,-0.3 -0.825,-0.525c-0.3,0 -0.525,-0.3 -1.125,-0.3l-1.65,0l0,4.65Z" style="fill:#037ea1;fill-rule:nonzero;"/><path d="M241.35,109.875l-1.65,0c-0.3,0 -0.3,0 -0.525,-0.3l-0.3,-0.3l-0.825,-2.475l-4.95,0l-0.825,2.475c0,0 0,0.3 -0.3,0.3c0,0 -0.3,0.3 -0.525,0.3l-1.65,0l4.65,-11.775l2.175,0l4.725,11.775Zm-7.725,-4.425l3.825,0l-1.35,-3.825c0,-0.3 -0.3,-0.3 -0.3,-0.525c0,-0.3 -0.3,-0.525 -0.3,-0.825c0,0.3 -0.3,0.525 -0.3,0.825c0,0.3 -0.3,0.525 -0.3,0.525l-1.275,3.825Z" style="fill:#037ea1;fill-rule:nonzero;"/><path d="M247.65,108.225c0.525,0 0.825,0 1.35,0c0.3,0 0.825,-0.3 1.125,-0.3l0,-2.175l-1.35,0l-0.3,0l0,-0.3l0,-1.35l3.825,0l0,4.95c-0.3,0.3 -0.525,0.3 -0.825,0.525c-0.3,0.3 -0.525,0.3 -1.125,0.3c-0.3,0 -0.825,0.3 -1.125,0.3c-0.525,0 -0.825,0 -1.35,0c-0.825,0 -1.65,-0.3 -2.475,-0.525c-0.825,-0.3 -1.35,-0.825 -1.95,-1.35c-0.525,-0.525 -0.825,-1.125 -1.35,-1.95c-0.3,-0.825 -0.525,-1.65 -0.525,-2.475c0,-0.825 0.3,-1.65 0.525,-2.475c0.3,-0.825 0.825,-1.35 1.35,-1.95c0.525,-0.525 1.125,-0.825 1.95,-1.35c0.825,-0.3 1.65,-0.525 2.475,-0.525c1.125,0 1.95,0.3 2.475,0.525c0.825,0.3 1.35,0.525 1.95,1.125l-0.525,1.125c0,0.3 -0.3,0.3 -0.525,0.3l-0.3,0c-0.3,0 -0.3,-0.3 -0.525,-0.3c-0.3,0 -0.3,-0.3 -0.525,-0.3c-0.3,0 -0.525,-0.3 -0.825,-0.3c-0.3,0 -0.525,0 -0.825,0c-0.525,0 -1.125,0 -1.65,0.3c-0.525,0.3 -0.825,0.525 -1.125,0.825c-0.3,0.3 -0.525,0.825 -0.825,1.35c-0.3,0.525 -0.3,1.125 -0.3,1.65c0,0.525 0,1.35 0.3,1.95c0.3,0.525 0.525,1.125 0.825,1.35c0.3,0.225 0.825,0.525 1.125,0.825c-0.075,0.225 0.525,0.225 1.05,0.225Z" style="fill:#037ea1;fill-rule:nonzero;"/><path d="M261.675,98.025l0,1.65l-5.25,0l0,3.3l4.125,0l0,1.65l-4.125,0l0,3.3l5.25,0l0,1.65l-7.425,0l0,-11.775l7.425,0l0,0.225Z" style="fill:#037ea1;fill-rule:nonzero;"/><path d="M269.1,105.15l0,4.65l-2.175,0l0,-11.775l3.6,0c0.825,0 1.35,0 2.175,0.3c0.825,0.3 1.125,0.3 1.35,0.825c0.3,0.3 0.525,0.525 0.825,1.125c0.3,0.525 0.3,0.825 0.3,1.35c0,0.3 0,0.825 -0.3,1.125c0,0.3 -0.3,0.525 -0.525,1.125c-0.3,0.3 -0.525,0.525 -0.825,0.825c-0.3,0.3 -0.825,0.3 -1.125,0.525c0.3,0.3 0.525,0.3 0.825,0.525l3,4.425l-1.95,0c-0.3,0 -0.3,0 -0.525,0l-0.3,-0.3l-2.475,-3.825c0,-0.3 -0.3,-0.3 -0.3,-0.3c0,0 -0.3,0 -0.525,0l-1.125,0l0.075,-0.6Zm0,-1.65l1.35,0c0.525,0 0.825,0 1.125,-0.3c0.3,0 0.525,-0.3 0.825,-0.525c0.3,-0.3 0.3,-0.3 0.525,-0.525c0,-0.3 0.3,-0.525 0.3,-0.825c0,-0.525 -0.3,-1.125 -0.525,-1.35c-0.3,-0.3 -1.125,-0.525 -1.95,-0.525l-1.35,0l0,4.125l-0.3,0l0,-0.075Z" style="fill:#037ea1;fill-rule:nonzero;"/><path d="M285,98.025l0,1.65l-5.25,0l0,3.3l4.125,0l0,1.65l-4.125,0l0,3.3l5.25,0l0,1.65l-7.425,0l0,-11.775l7.425,0l0,0.225Z" style="fill:#037ea1;fill-rule:nonzero;"/><path d="M285.825,98.025l1.95,0c0.3,0 0.3,0 0.525,0.3l0.3,0.3l2.775,7.125c0,0.3 0.3,0.525 0.3,0.825c0,0.3 0.3,0.525 0.3,0.825c0,-0.525 0.3,-1.125 0.525,-1.65l2.775,-7.125c0,0 0,-0.3 0.3,-0.3c0,0 0.3,-0.3 0.525,-0.3l1.95,0l-4.95,11.775l-1.95,0l-5.325,-11.775Z" style="fill:#037ea1;fill-rule:nonzero;"/><path d="M309.75,103.8c0,0.825 -0.3,1.65 -0.525,2.475c-0.225,0.825 -0.825,1.35 -1.125,1.95c-0.525,0.525 -1.125,1.125 -1.95,1.35c-0.825,0.225 -1.65,0.525 -2.475,0.525c-0.825,0 -1.65,-0.3 -2.475,-0.525c-0.825,-0.3 -1.35,-0.825 -1.95,-1.35c-0.525,-0.525 -0.825,-1.125 -1.125,-1.95c-0.3,-0.825 -0.525,-1.65 -0.525,-2.475c0,-0.825 0.3,-1.65 0.525,-2.475c0.3,-0.825 0.825,-1.35 1.125,-1.95c0.525,-0.525 1.125,-1.125 1.95,-1.35c0.825,-0.3 1.65,-0.525 2.475,-0.525c0.825,0 1.65,0.3 2.475,0.525c0.825,0.3 1.35,0.825 1.95,1.35c0.525,0.525 0.825,1.125 1.125,1.95c0.225,0.825 0.525,1.65 0.525,2.475Zm-2.475,0c0,-0.525 0,-1.35 -0.3,-1.65c-0.3,-0.3 -0.525,-0.825 -0.825,-1.35c-0.3,-0.3 -0.825,-0.525 -1.125,-0.825c-0.525,-0.3 -1.125,-0.3 -1.65,-0.3c-0.525,0 -1.125,0 -1.65,0.3c-0.525,0.3 -0.825,0.525 -1.125,0.825c-0.3,0.3 -0.525,0.825 -0.825,1.35c-0.3,0.525 -0.3,1.125 -0.3,1.65c0,0.525 0,1.35 0.3,1.65c0.3,0.3 0.525,0.825 0.825,1.35c0.3,0.3 0.825,0.525 1.125,0.825c0.525,0.3 1.125,0.3 1.65,0.3c0.525,0 1.125,0 1.65,-0.3c0.525,-0.3 0.825,-0.525 1.125,-0.825c0.3,-0.3 0.525,-0.825 0.825,-1.35c0.3,-0.525 0.3,-0.825 0.3,-1.65Z" style="fill:#037ea1;fill-rule:nonzero;"/><path d="M313.575,108.225l4.65,0l0,1.95l-6.9,0l0,-11.775l2.175,0l0,9.825l0.075,0Z" style="fill:#037ea1;fill-rule:nonzero;"/><path d="M324.825,108.225c0.525,0 0.825,0 1.125,-0.3c0.3,-0.3 0.525,-0.3 0.825,-0.525c0.3,-0.3 0.3,-0.525 0.525,-0.825c0,-0.3 0.3,-0.825 0.3,-1.35l0,-7.125l2.175,0l0,7.125c0,0.825 0,1.35 -0.3,1.95c-0.3,0.525 -0.525,1.125 -1.125,1.65c-0.525,0.525 -0.825,0.825 -1.65,1.125c-0.525,0.3 -1.35,0.3 -2.175,0.3c-0.825,0 -1.35,0 -2.175,-0.3c-0.525,-0.3 -1.125,-0.525 -1.65,-1.125c-0.525,-0.6 -0.825,-0.825 -1.125,-1.65c-0.3,-0.525 -0.3,-1.35 -0.3,-1.95l0,-7.125l2.175,0l0,7.125c0,0.525 0,0.825 0.3,1.35c0,0.3 0.3,0.525 0.525,0.825c0.3,0.3 0.525,0.525 0.825,0.525c0.9,0 1.2,0.3 1.725,0.3Z" style="fill:#037ea1;fill-rule:nonzero;"/><path d="M340.2,98.025l0,1.95l-3.6,0l0,10.125l-2.175,0l0,-10.125l-3.6,0l0,-1.95l9.375,0Z" style="fill:#037ea1;fill-rule:nonzero;"/><rect x="342.15" y="98.025" width="2.175" height="11.775" style="fill:#037ea1;"/><path d="M358.35,103.8c0,0.825 -0.3,1.65 -0.525,2.475c-0.3,0.825 -0.825,1.35 -1.125,1.95c-0.525,0.525 -1.125,1.125 -1.95,1.35c-0.825,0.225 -1.65,0.525 -2.475,0.525c-0.825,0 -1.65,-0.3 -2.475,-0.525c-0.825,-0.3 -1.35,-0.825 -1.95,-1.35c-0.525,-0.525 -0.825,-1.125 -1.125,-1.95c-0.3,-0.825 -0.525,-1.65 -0.525,-2.475c0,-0.825 0.3,-1.65 0.525,-2.475c0.3,-0.825 0.825,-1.35 1.125,-1.95c0.525,-0.525 1.125,-1.125 1.95,-1.35c0.825,-0.225 1.65,-0.525 2.475,-0.525c0.825,0 1.65,0.3 2.475,0.525c0.825,0.3 1.35,0.825 1.95,1.35c0.525,0.525 0.825,1.125 1.125,1.95c0.225,0.825 0.525,1.65 0.525,2.475Zm-2.25,0c0,-0.525 0,-1.35 -0.3,-1.65c-0.3,-0.3 -0.525,-0.825 -0.825,-1.35c-0.3,-0.3 -0.825,-0.525 -1.125,-0.825c-0.525,-0.3 -1.125,-0.3 -1.65,-0.3c-0.525,0 -1.125,0 -1.65,0.3c-0.525,0.3 -0.825,0.525 -1.125,0.825c-0.3,0.3 -0.525,0.825 -0.825,1.35c-0.3,0.525 -0.3,1.125 -0.3,1.65c0,0.525 0,1.35 0.3,1.65c0.3,0.3 0.525,0.825 0.825,1.35c0.3,0.3 0.825,0.525 1.125,0.825c0.525,0.3 1.125,0.3 1.65,0.3c0.525,0 1.125,0 1.65,-0.3c0.525,-0.3 0.825,-0.525 1.125,-0.825c0.3,-0.3 0.525,-0.825 0.825,-1.35c0.3,-0.525 0.3,-0.825 0.3,-1.65Z" style="fill:#037ea1;fill-rule:nonzero;"/><path d="M361.35,98.025c0.3,0 0.3,0 0,0l0.525,0.525l6.3,7.95c0,-0.3 0,-0.3 0,-0.525c0,-0.225 0,-0.3 0,-0.525l0,-7.125l1.95,0l0,11.775l-1.125,0c-0.3,0 -0.3,0 -0.525,0c-0.3,0 -0.3,-0.3 -0.3,-0.3l-6.3,-7.95l0,8.55l-1.95,0l0,-11.775l1.425,-0.6Z" style="fill:#037ea1;fill-rule:nonzero;"/></svg>